<?xml version="1.0" standalone="no"?>
<!DOCTYPE svg PUBLIC "-//W3C//DTD SVG 20010904//EN"
 "http://www.w3.org/TR/2001/REC-SVG-20010904/DTD/svg10.dtd">
<svg version="1.0" xmlns="http://www.w3.org/2000/svg"
 width="1280.000000pt" height="542.000000pt" viewBox="0 0 1280.000000 542.000000"
 preserveAspectRatio="xMidYMid meet">
<metadata>
Created by potrace 1.15, written by Peter Selinger 2001-2017
</metadata>
<g transform="translate(0.000000,542.000000) scale(0.100000,-0.100000)"
fill="#000000" stroke="none">
<path d="M8381 4418 c-5 -13 -24 -304 -41 -648 -48 -958 -51 -1014 -54 -1025
-2 -5 -6 224 -10 510 -12 949 -17 1126 -33 1132 -8 3 -19 1 -24 -4 -6 -6 -21
-245 -35 -574 -13 -310 -28 -636 -32 -724 l-8 -160 -7 255 c-4 140 -12 453
-17 695 -6 243 -14 443 -19 448 -5 5 -16 7 -24 4 -19 -7 -22 -40 -54 -769 -15
-345 -28 -626 -30 -624 -2 2 -15 282 -29 622 -14 340 -27 629 -30 642 -3 14
-12 22 -24 22 -12 0 -21 -8 -24 -22 -3 -13 -21 -261 -41 -553 -19 -291 -39
-552 -43 -580 -5 -34 -15 99 -31 430 -18 368 -27 483 -37 495 -35 37 -40 3
-98 -675 -32 -363 -60 -684 -63 -712 l-6 -53 -422 0 -423 0 -72 211 c-68 197
-88 235 -110 213 -5 -5 -50 -207 -99 -449 -103 -498 -102 -494 -107 -480 -2 6
-21 294 -44 640 -23 347 -43 640 -46 653 -7 35 -40 28 -52 -10 -6 -18 -50
-194 -98 -391 -47 -197 -88 -356 -91 -353 -2 2 -42 250 -88 551 -46 301 -87
551 -92 556 -21 21 -40 -3 -46 -54 -3 -29 -32 -423 -64 -877 -38 -543 -61
-811 -65 -785 -4 22 -30 285 -58 585 -28 300 -53 555 -55 568 -4 17 -12 22
-27 20 -19 -3 -30 -37 -106 -325 l-85 -323 -587 0 c-454 0 -590 -3 -602 -12
-8 -7 -53 -120 -98 -251 -46 -130 -85 -236 -86 -234 -2 2 -22 415 -44 918 -23
503 -43 920 -45 927 -6 18 -43 15 -49 -5 -2 -10 -40 -239 -82 -510 -43 -271
-80 -491 -82 -488 -2 2 -24 140 -48 307 -25 167 -50 308 -57 315 -35 35 -39 8
-69 -518 -73 -1296 -85 -1492 -91 -1469 -3 14 -43 381 -87 815 -52 506 -85
794 -93 802 -7 8 -17 9 -26 3 -12 -7 -17 -81 -26 -399 -7 -216 -14 -394 -17
-397 -3 -2 -15 24 -28 58 -12 35 -27 69 -32 75 -8 10 -129 13 -521 15 l-510 3
-54 170 c-55 174 -73 209 -95 187 -6 -6 -68 -352 -138 -769 -145 -870 -129
-839 -155 -288 -26 560 -104 2178 -107 2225 -3 41 -5 45 -28 45 l-25 0 -151
-828 c-84 -455 -154 -830 -156 -832 -2 -2 -25 152 -52 343 -48 353 -59 395
-89 362 -9 -10 -50 -261 -111 -675 -54 -363 -101 -671 -106 -685 -8 -23 -8
-22 -9 10 0 19 -26 487 -57 1040 -58 1040 -60 1060 -98 1020 -10 -12 -356
-1297 -356 -1324 0 -3 -56 -6 -125 -6 l-125 0 0 -25 0 -25 139 0 c99 0 141 4
148 13 10 12 303 1122 303 1145 0 6 4 12 8 12 4 0 14 -107 21 -237 52 -982
111 -1937 120 -1946 16 -16 38 -1 43 30 3 15 52 342 109 725 57 384 106 698
109 698 3 0 24 -145 48 -323 24 -177 47 -332 52 -345 9 -22 34 -30 44 -14 2 4
68 356 146 782 77 426 145 784 150 795 7 16 9 10 9 -25 1 -25 14 -322 31 -660
16 -338 45 -936 65 -1328 19 -392 37 -717 40 -722 11 -18 35 -11 44 13 5 12
69 388 143 834 73 447 136 813 139 813 3 0 23 -54 44 -120 20 -66 43 -124 50
-130 7 -6 198 -11 519 -12 l508 -3 48 -129 c52 -138 60 -152 84 -143 12 5 16
21 17 59 7 275 16 450 21 438 3 -8 41 -357 83 -775 79 -778 84 -812 119 -775
10 11 17 75 25 230 9 176 70 1257 98 1745 8 144 10 138 54 -170 18 -126 37
-236 42 -242 14 -18 35 -16 41 5 3 9 38 217 76 462 39 244 73 447 76 449 2 2
4 -9 4 -26 0 -17 13 -325 30 -684 16 -360 32 -729 36 -822 7 -173 18 -217 46
-189 7 7 60 147 118 310 l106 297 596 5 c328 3 599 8 602 11 3 3 36 119 72
257 37 139 69 251 71 249 1 -2 32 -314 68 -692 45 -474 69 -691 78 -697 16
-11 25 -10 32 3 6 9 134 1730 135 1808 0 19 2 32 5 29 3 -3 40 -228 81 -499
69 -453 81 -508 106 -509 15 0 27 44 107 375 45 187 85 347 88 355 5 13 6 13
9 0 2 -8 22 -301 44 -650 23 -349 43 -645 46 -658 3 -17 10 -22 27 -20 21 3
28 33 128 516 59 282 109 515 112 518 3 3 28 -66 57 -153 29 -87 57 -164 63
-170 15 -20 910 -19 926 1 6 8 29 221 55 515 24 276 45 504 48 506 2 3 14
-212 27 -478 12 -265 24 -497 27 -514 4 -25 10 -33 25 -33 11 0 22 6 24 13 3
6 23 266 44 576 22 310 43 566 46 569 3 3 5 -12 5 -34 -1 -73 51 -1349 56
-1371 5 -25 41 -32 49 -10 2 6 16 273 30 592 14 319 27 581 29 583 2 1 7 -161
10 -360 16 -787 24 -1070 33 -1079 21 -21 43 2 44 45 0 22 13 318 28 656 l27
615 7 -265 c4 -146 10 -481 14 -745 8 -469 8 -480 28 -480 12 0 22 9 27 25 3
14 26 405 49 870 23 465 42 846 44 848 3 4 14 -510 26 -1268 12 -728 13 -748
51 -718 13 11 18 117 37 843 12 457 21 850 21 874 0 24 2 42 4 40 3 -3 14
-362 26 -799 11 -437 24 -880 28 -985 7 -186 7 -190 29 -193 17 -2 23 3 27 20
2 13 16 381 31 818 40 1161 42 1210 47 1215 3 3 8 -144 12 -327 4 -183 11
-490 16 -683 5 -192 14 -557 20 -810 6 -253 13 -466 15 -473 7 -21 44 -14 49
11 2 12 10 198 16 412 6 215 15 496 20 625 5 129 13 348 17 485 l8 250 6 -255
c3 -140 7 -572 8 -960 1 -388 4 -715 7 -728 7 -24 42 -31 49 -9 2 6 20 368 40
802 19 435 37 813 39 840 2 28 2 -365 0 -873 -3 -823 -2 -924 12 -929 8 -3 20
-1 27 6 7 7 32 382 74 1129 34 614 63 1142 64 1172 5 105 16 -718 18 -1271 2
-788 11 -1247 26 -1253 31 -11 35 14 50 305 31 592 105 2099 107 2161 4 142
15 -874 17 -1530 1 -628 3 -703 17 -709 36 -14 28 -121 123 1622 17 303 36
651 43 775 l13 225 6 -370 c3 -203 7 -633 9 -955 3 -695 11 -1022 25 -1027 32
-10 35 15 55 468 12 249 32 677 44 949 l23 495 2 -873 c1 -782 3 -873 17 -879
8 -3 20 -1 26 5 5 5 41 460 84 1058 40 577 77 1096 83 1154 6 73 9 -200 9
-895 0 -550 0 -1006 1 -1012 0 -7 10 -13 21 -13 11 0 22 6 25 13 2 6 9 86 14
177 21 328 141 2116 144 2140 5 48 17 -159 58 -995 32 -664 44 -843 55 -855
38 -39 39 -18 78 900 21 487 39 887 42 889 2 2 4 -4 4 -15 0 -10 23 -318 51
-684 40 -528 53 -668 65 -680 35 -34 39 4 58 462 10 244 21 454 25 468 5 14
11 -110 15 -275 9 -364 14 -419 39 -423 9 -2 20 3 23 11 3 9 34 208 69 444 35
235 64 426 65 423 1 -3 17 -227 35 -498 22 -319 38 -498 46 -508 9 -11 53 -14
230 -14 198 0 219 2 228 18 5 9 28 86 52 171 39 139 44 151 51 120 4 -19 28
-227 54 -464 25 -236 50 -434 55 -440 6 -6 15 -6 26 1 15 9 27 112 84 722 37
391 69 719 72 729 4 16 5 16 6 -2 8 -111 130 -1058 138 -1066 25 -25 41 10
112 251 40 137 77 266 82 286 6 20 12 34 14 32 3 -2 34 -277 69 -612 36 -334
68 -611 71 -617 11 -17 35 -9 45 13 5 13 50 183 100 378 50 195 100 390 112
433 l20 77 119 0 119 0 0 25 0 25 -134 0 c-95 0 -136 -4 -143 -12 -6 -7 -52
-175 -102 -373 -51 -198 -95 -367 -98 -375 -5 -13 -6 -13 -9 0 -2 8 -31 274
-64 590 -33 316 -63 585 -65 598 -4 17 -12 22 -27 20 -23 -3 -24 -6 -158 -466
-18 -62 -34 -111 -36 -110 -1 2 -35 271 -74 598 -42 346 -77 600 -84 608 -10
10 -15 10 -28 0 -12 -11 -27 -139 -77 -683 -35 -368 -66 -692 -70 -720 -5 -40
-15 29 -50 345 -57 524 -61 529 -162 173 l-63 -223 -188 0 c-103 0 -188 2
-188 5 0 11 -80 1212 -83 1235 -1 19 -8 25 -27 25 -21 0 -25 -6 -31 -40 -4
-22 -30 -205 -59 -407 -30 -202 -55 -366 -57 -364 -2 2 -12 259 -23 571 -19
573 -21 592 -55 579 -17 -7 -20 -61 -47 -686 -12 -296 -26 -538 -30 -538 -4 0
-8 21 -8 48 -1 119 -98 1304 -108 1314 -6 6 -17 8 -25 5 -18 -7 -17 10 -58
-946 -16 -382 -31 -697 -34 -699 -3 -3 -5 10 -5 29 1 63 -81 1694 -85 1707 -7
21 -44 14 -49 -10 -3 -13 -32 -444 -66 -958 -33 -514 -63 -942 -65 -950 -2 -8
-3 424 -3 960 0 536 -1 981 -1 988 -1 6 -10 12 -21 12 -11 0 -23 -6 -25 -12
-2 -7 -38 -506 -80 -1108 -41 -602 -78 -1117 -83 -1145 -4 -27 -6 471 -4 1108
3 1063 2 1158 -13 1163 -9 4 -21 2 -27 -4 -6 -6 -28 -412 -59 -1089 -26 -593
-50 -1094 -52 -1113 -2 -19 -5 150 -7 375 -1 226 -6 716 -9 1090 l-6 680 -25
0 c-30 0 -18 160 -100 -1350 -33 -610 -62 -1126 -63 -1145 -2 -19 -5 330 -6
775 -2 446 -4 815 -6 820 -1 6 -3 187 -3 403 -2 381 -3 392 -21 392 -11 0 -22
-4 -25 -8 -3 -5 -32 -558 -65 -1228 -33 -670 -64 -1264 -68 -1319 -5 -62 -12
364 -17 1135 -6 1042 -10 1237 -22 1250 -38 39 -39 24 -98 -1050 -32 -569 -59
-1037 -62 -1039 -3 -3 -2 188 1 424 3 237 7 739 10 1116 5 608 4 687 -10 699
-28 24 -45 -5 -45 -78 0 -55 -85 -1956 -92 -2077 -5 -68 -18 1200 -19 1736 0
414 -3 510 -14 525 -12 17 -15 17 -29 4 -12 -13 -20 -178 -50 -1065 -20 -577
-36 -1079 -36 -1114 0 -35 -2 -62 -5 -59 -2 2 -16 461 -29 1019 -14 558 -27
1071 -29 1142 -4 133 -13 165 -42 137 -12 -12 -21 -197 -52 -1062 -21 -576
-39 -1045 -41 -1044 -3 3 -24 767 -42 1486 -13 555 -17 630 -37 637 -8 3 -18
2 -23 -3 -5 -5 -19 -349 -30 -764 -20 -715 -28 -901 -29 -675 -3 476 -25 1422
-33 1433 -15 18 -27 15 -37 -10z"/>
</g>
</svg>
