<?xml version="1.0" standalone="no"?>
<!DOCTYPE svg PUBLIC "-//W3C//DTD SVG 20010904//EN"
 "http://www.w3.org/TR/2001/REC-SVG-20010904/DTD/svg10.dtd">
<svg version="1.0" xmlns="http://www.w3.org/2000/svg"
 width="1280.000000pt" height="1280.000000pt" viewBox="0 0 1280.000000 1280.000000"
 preserveAspectRatio="xMidYMid meet">
<metadata>
Created by potrace 1.15, written by Peter Selinger 2001-2017
</metadata>
<g transform="translate(0.000000,1280.000000) scale(0.100000,-0.100000)"
fill="#000000" stroke="none">
<path d="M7205 12790 c-10 -17 -144 -739 -221 -1188 -5 -30 -8 -33 -37 -30
l-31 3 -21 105 c-17 87 -24 105 -39 105 -14 0 -28 -23 -56 -95 -26 -66 -43
-96 -56 -99 -11 -2 -98 2 -194 8 -116 7 -228 8 -330 3 l-155 -9 -31 26 c-77
68 -142 65 -213 -8 -46 -47 -48 -48 -126 -55 -44 -4 -84 -11 -89 -16 -5 -5 -4
-71 2 -156 7 -81 10 -149 9 -151 -2 -1 -18 64 -36 145 -135 605 -309 1313
-327 1331 -11 13 -14 12 -20 -4 -10 -25 24 -334 129 -1180 1 -15 -5 -21 -26
-23 -22 -3 -31 3 -45 28 -9 17 -34 58 -55 92 -49 78 -60 68 -76 -62 -7 -52
-15 -98 -19 -102 -4 -3 -46 -18 -94 -31 l-86 -25 -48 24 c-58 30 -85 30 -142
3 -32 -16 -50 -34 -70 -70 -24 -44 -34 -52 -94 -75 -54 -22 -68 -32 -68 -48 0
-12 18 -81 40 -155 22 -74 38 -136 36 -138 -2 -2 -13 18 -24 44 -50 116 -307
655 -473 993 -147 297 -186 370 -202 370 -16 0 -18 -5 -12 -27 9 -39 207 -599
318 -903 l94 -255 -30 -13 c-17 -7 -31 -11 -31 -10 -1 2 -32 38 -70 81 -99
113 -107 107 -82 -58 8 -49 13 -91 12 -91 0 -1 -80 -42 -176 -91 -157 -81
-346 -192 -393 -231 -12 -11 -43 -16 -103 -16 -86 -1 -86 -1 -115 -36 -16 -19
-32 -50 -35 -70 -10 -63 -14 -67 -84 -119 -39 -28 -70 -54 -70 -59 0 -5 41
-69 90 -143 102 -151 116 -163 -194 171 -334 360 -768 810 -782 810 -42 0 -29
-19 363 -542 106 -142 225 -299 264 -350 l72 -91 -23 -19 c-12 -10 -25 -16
-29 -14 -3 2 -43 25 -89 51 -111 63 -117 56 -65 -72 l40 -97 -66 -73 c-63 -69
-68 -73 -111 -73 -96 -1 -160 -68 -160 -168 0 -49 -4 -59 -47 -114 l-48 -60
117 -114 c65 -63 116 -114 113 -114 -2 0 -75 50 -162 112 -379 267 -1106 758
-1135 766 -25 6 -24 -31 1 -49 11 -8 126 -106 258 -219 131 -113 334 -286 450
-384 117 -98 213 -180 213 -183 0 -2 -7 -14 -16 -28 l-15 -24 -95 35 c-52 19
-102 34 -109 34 -29 0 -14 -37 48 -114 l64 -79 -74 -116 c-41 -64 -80 -123
-87 -131 -17 -19 -102 -172 -155 -277 -23 -46 -47 -83 -53 -83 -29 0 -100 -44
-114 -72 -20 -38 -20 -102 -1 -147 14 -32 13 -38 -19 -108 -19 -41 -34 -80
-34 -87 0 -7 63 -43 140 -80 77 -37 140 -69 140 -70 0 -2 -35 7 -77 21 -462
149 -1379 417 -1394 407 -21 -13 -6 -33 39 -52 26 -11 187 -80 357 -154 171
-74 396 -170 500 -213 105 -44 194 -82 198 -86 5 -4 4 -16 -2 -28 -11 -19 -20
-21 -101 -21 -149 0 -154 -13 -40 -100 44 -33 80 -66 80 -73 0 -7 -9 -50 -21
-97 -20 -81 -23 -86 -64 -113 -73 -46 -95 -129 -55 -207 11 -21 23 -41 28 -44
4 -2 4 -39 -2 -81 -6 -46 -6 -79 0 -85 5 -5 72 -25 149 -45 l140 -35 -80 5
c-44 3 -217 16 -385 30 -168 13 -440 33 -605 44 -165 11 -341 23 -391 27 -65
4 -94 2 -99 -6 -4 -6 -3 -16 2 -21 12 -12 690 -140 1191 -225 30 -5 33 -8 30
-37 l-3 -31 -105 -21 c-87 -17 -105 -24 -105 -39 0 -13 23 -27 90 -53 50 -19
94 -39 99 -44 6 -5 5 -80 -2 -196 -8 -126 -9 -240 -3 -343 l8 -155 -26 -31
c-68 -77 -65 -142 8 -213 47 -46 48 -48 55 -126 4 -43 10 -83 13 -88 5 -9 81
-6 268 8 38 3 -30 -15 -180 -50 -665 -152 -1237 -294 -1254 -310 -13 -12 -12
-15 4 -22 20 -7 408 33 885 93 151 19 284 35 295 37 15 1 21 -5 23 -26 3 -22
-3 -31 -28 -45 -17 -9 -58 -34 -92 -55 -78 -49 -68 -60 62 -76 52 -7 98 -15
102 -19 3 -4 18 -46 31 -94 l24 -88 -24 -47 c-42 -83 -12 -172 72 -213 39 -19
46 -28 71 -91 22 -55 31 -69 48 -69 12 0 81 18 155 40 74 22 136 39 137 37 2
-1 -45 -25 -104 -52 -256 -118 -612 -289 -944 -452 -276 -136 -358 -181 -358
-195 0 -10 4 -18 9 -18 13 0 581 199 906 318 l270 99 13 -30 c7 -17 11 -31 10
-31 -2 -1 -38 -32 -80 -70 -114 -99 -108 -107 57 -82 50 8 91 13 91 12 1 0 42
-81 93 -179 50 -97 125 -230 168 -295 l77 -117 -3 -75 c-2 -64 1 -80 18 -102
25 -32 79 -58 120 -58 26 0 38 -10 86 -75 30 -41 59 -75 63 -75 5 0 69 41 143
91 103 70 124 81 89 48 -25 -24 -142 -133 -260 -243 -359 -333 -810 -769 -810
-782 0 -42 20 -29 545 365 143 107 300 226 349 264 l89 70 19 -23 c10 -12 16
-25 14 -29 -2 -3 -25 -43 -51 -89 -63 -111 -56 -117 72 -65 l97 40 72 -65 c71
-64 72 -65 76 -121 7 -99 65 -151 168 -151 47 0 58 -5 112 -47 l60 -48 114
117 c63 65 114 116 114 113 0 -2 -34 -52 -75 -109 -252 -355 -795 -1157 -803
-1188 -8 -33 29 -20 68 24 96 110 433 504 589 691 95 114 175 207 178 207 2 0
15 -8 27 -17 l23 -18 -33 -93 c-19 -51 -34 -100 -34 -107 0 -29 37 -14 114 48
l79 64 111 -70 c61 -38 120 -78 131 -87 20 -18 191 -113 303 -169 34 -17 62
-37 62 -43 0 -27 42 -95 69 -111 35 -20 106 -22 151 -3 31 13 38 11 107 -20
41 -19 80 -34 87 -34 7 0 43 63 80 140 37 77 69 140 70 140 2 0 -10 -42 -26
-92 -46 -144 -172 -557 -253 -833 -165 -560 -164 -555 -131 -555 13 0 175 364
372 833 61 148 114 271 117 273 3 3 15 1 26 -5 18 -10 21 -22 23 -114 4 -134
15 -137 98 -28 33 45 66 81 73 81 7 0 50 -9 97 -21 81 -20 86 -23 113 -64 46
-73 129 -95 207 -55 21 11 41 23 44 28 2 4 39 4 81 -2 46 -6 79 -6 85 0 5 5
25 72 44 149 19 77 35 129 35 115 0 -14 -10 -155 -24 -315 -20 -244 -40 -514
-81 -1121 -4 -65 -2 -94 6 -99 28 -17 29 -14 140 595 32 179 68 381 80 450 32
195 27 182 63 178 l31 -3 21 -105 c17 -88 24 -105 39 -105 14 0 27 21 53 90
19 50 39 94 44 99 5 6 80 5 196 -2 126 -8 240 -9 343 -3 l155 8 31 -26 c77
-68 142 -65 213 8 46 47 48 48 126 55 44 4 84 11 89 16 5 5 4 71 -2 156 -7 81
-10 149 -9 151 2 1 18 -64 36 -145 135 -605 309 -1313 327 -1331 11 -13 14
-12 20 4 10 25 -24 334 -129 1180 -1 15 5 21 26 23 22 3 31 -3 45 -28 9 -17
34 -58 55 -92 49 -78 60 -68 76 62 7 52 15 98 19 102 4 3 46 18 94 31 l86 25
48 -24 c54 -28 81 -30 128 -10 40 17 74 50 92 93 11 25 26 36 84 59 56 22 70
31 70 48 0 12 -18 81 -40 155 -22 74 -39 136 -37 137 1 2 65 -131 141 -294 77
-163 229 -480 339 -704 162 -329 204 -408 220 -408 16 0 18 5 12 27 -9 39
-207 599 -318 903 l-94 255 30 13 c17 7 31 11 31 10 1 -2 33 -38 70 -81 99
-112 107 -107 82 58 -8 50 -13 91 -12 91 0 1 81 43 179 93 97 50 232 126 300
170 l122 78 65 -4 c42 -2 74 1 90 9 32 17 70 84 70 125 0 29 9 39 75 88 41 31
75 59 75 64 0 4 -40 67 -90 139 -49 73 -88 132 -86 132 1 0 70 -73 152 -162
349 -380 895 -948 910 -948 42 0 29 20 -365 545 -107 143 -226 300 -264 349
l-70 89 23 19 c12 10 25 16 29 14 3 -2 43 -25 89 -51 111 -63 117 -56 65 72
l-40 97 66 73 c63 69 68 73 111 73 96 1 160 68 160 168 0 48 4 59 47 114 l47
61 -117 114 c-64 62 -114 113 -110 113 4 0 14 -6 22 -14 74 -64 1258 -866
1278 -866 53 0 -50 95 -632 585 -137 116 -260 219 -273 231 -24 20 -24 21 -8
47 l17 26 95 -35 c52 -19 102 -34 109 -34 29 0 14 37 -49 114 l-63 80 55 85
c30 47 66 103 81 125 52 77 84 133 153 263 38 73 75 133 81 133 28 0 99 45
112 71 19 35 19 107 1 149 -13 31 -11 38 20 107 19 41 34 80 34 87 0 7 -63 43
-140 80 -77 37 -140 69 -140 72 0 3 3 3 8 1 44 -28 1447 -441 1463 -431 24 15
1 34 -88 73 -367 162 -738 320 -908 388 -49 20 -94 39 -98 43 -5 5 -4 17 2 29
11 19 20 21 101 21 149 0 154 13 40 100 -44 33 -80 68 -80 76 0 8 9 52 21 97
19 77 23 84 64 110 73 46 95 129 55 207 -11 21 -23 41 -28 44 -4 2 -4 39 2 81
6 46 6 79 0 85 -5 5 -72 25 -149 44 -77 19 -130 35 -117 35 13 1 186 -12 385
-29 199 -16 497 -38 662 -49 165 -11 341 -23 391 -27 65 -4 94 -2 99 6 4 6 3
16 -2 21 -12 12 -778 157 -1191 225 -30 5 -33 8 -30 37 l3 31 105 21 c87 17
105 24 105 39 0 14 -23 28 -95 56 -79 31 -96 42 -99 61 -2 13 2 98 8 189 8
111 9 217 3 325 l-9 160 26 31 c68 77 65 142 -8 213 -47 46 -48 48 -55 126 -4
43 -10 83 -13 88 -5 9 -74 6 -268 -8 l-60 -5 65 16 c36 9 211 49 390 91 639
146 1022 242 1039 259 30 28 -27 27 -319 -5 -245 -27 -402 -46 -865 -104 -15
-1 -21 5 -23 26 -3 22 3 31 28 45 107 59 152 94 141 105 -7 7 -58 19 -113 27
l-102 15 -27 92 -27 93 24 46 c28 54 30 81 10 128 -17 40 -50 74 -93 92 -25
11 -36 26 -59 84 -22 56 -31 70 -48 70 -12 0 -82 -18 -156 -40 -74 -21 -136
-38 -138 -36 -1 2 19 13 45 24 102 44 685 322 1016 484 278 137 347 175 347
191 0 16 -5 18 -27 12 -39 -9 -599 -207 -903 -318 l-255 -94 -13 30 c-7 17
-11 31 -10 31 2 1 38 33 81 70 112 99 107 107 -58 82 -49 -8 -91 -13 -91 -12
-1 0 -42 81 -92 178 -50 98 -127 233 -170 300 l-79 123 5 67 c3 52 1 74 -12
93 -20 31 -86 65 -125 65 -26 0 -38 11 -86 75 -30 41 -59 75 -63 75 -5 0 -68
-40 -140 -90 -73 -49 -132 -88 -132 -86 0 1 73 70 162 152 384 352 948 894
948 910 0 43 -21 28 -560 -376 -151 -113 -309 -232 -350 -264 l-74 -58 -18 22
c-10 12 -16 25 -14 29 2 3 25 43 51 89 63 110 56 117 -72 65 l-99 -40 -72 67
c-68 63 -72 69 -72 111 -1 94 -69 159 -168 159 -49 0 -59 4 -114 47 l-60 48
-114 -117 c-63 -65 -114 -115 -114 -112 0 3 17 28 38 57 177 241 842 1224 842
1244 0 53 -108 -64 -589 -637 -276 -329 -244 -296 -274 -274 l-24 19 33 93
c19 51 34 100 34 107 0 29 -37 14 -114 -49 l-80 -63 -85 55 c-47 30 -103 66
-125 81 -80 54 -134 86 -263 153 -73 38 -133 75 -133 81 0 27 -45 99 -71 112
-35 19 -107 19 -149 1 -31 -13 -38 -11 -107 20 -41 19 -80 34 -87 34 -7 0 -43
-63 -80 -140 -37 -77 -69 -140 -70 -140 -2 0 10 42 26 93 176 556 412 1363
402 1378 -3 5 -11 9 -18 9 -13 0 -175 -363 -372 -833 -61 -148 -114 -271 -117
-273 -3 -3 -15 -1 -26 6 -19 10 -21 20 -21 100 0 149 -13 154 -100 40 -33 -44
-68 -80 -76 -80 -8 0 -52 9 -97 21 -77 19 -84 23 -110 64 -46 73 -129 95 -207
55 -21 -11 -41 -23 -44 -28 -3 -5 -36 -4 -75 1 -38 5 -76 7 -84 4 -10 -4 -27
-55 -47 -144 -18 -76 -36 -141 -40 -146 -3 -4 -3 25 1 65 13 123 58 697 79
1003 25 380 28 487 13 492 -6 2 -14 -1 -18 -7z m-37 -502 c-30 -434 -94 -1198
-114 -1365 -5 -44 -3 -54 10 -59 9 -4 19 -5 21 -2 2 2 36 141 75 308 40 168
75 309 79 313 5 4 38 3 76 -3 62 -10 70 -9 89 8 71 65 151 53 200 -31 25 -42
26 -42 138 -70 l113 -28 25 28 c14 16 37 44 52 63 l27 35 1 -72 c0 -69 1 -73
28 -87 24 -13 27 -20 27 -67 0 -40 4 -54 15 -57 11 -2 39 54 103 210 136 327
291 688 294 684 8 -8 -254 -870 -427 -1406 -12 -38 -15 -59 -8 -67 15 -19 28
-6 53 51 35 79 245 520 250 524 3 3 38 -10 78 -27 72 -32 75 -32 112 -17 88
37 148 12 174 -73 11 -38 18 -44 111 -92 55 -28 115 -61 134 -74 18 -12 55
-35 82 -51 27 -15 108 -65 180 -111 73 -46 136 -83 142 -83 6 0 35 20 65 45
31 25 58 45 60 45 3 0 -7 -34 -21 -75 l-27 -76 25 -19 c25 -19 25 -19 8 -64
-13 -35 -14 -47 -4 -55 16 -13 21 -9 106 94 171 207 552 655 556 655 10 0
-423 -630 -698 -1018 -163 -229 -193 -282 -161 -282 5 0 81 78 170 173 89 94
190 200 225 234 l63 62 52 -43 c48 -40 55 -43 100 -39 26 3 60 0 75 -6 40 -15
68 -67 68 -123 0 -47 2 -50 81 -125 45 -43 87 -79 94 -81 7 -2 41 9 75 23 34
14 64 24 67 21 3 -3 -9 -28 -26 -56 -34 -55 -37 -71 -19 -99 10 -16 7 -26 -15
-60 -60 -90 -19 -82 118 25 213 166 668 507 661 496 -13 -22 -441 -426 -778
-735 -186 -171 -338 -316 -338 -323 0 -27 19 -22 76 18 152 106 475 328 479
328 2 0 23 -27 45 -60 44 -65 64 -80 107 -80 39 0 91 -34 99 -65 4 -14 3 -49
0 -76 -7 -49 -5 -53 57 -152 63 -101 131 -222 242 -430 l58 -109 46 7 c25 3
62 8 81 11 l35 5 -25 -21 c-94 -82 -100 -89 -88 -115 10 -23 8 -29 -27 -65
-67 -69 -38 -68 161 6 347 128 757 274 761 271 2 -2 -41 -25 -94 -50 -54 -25
-233 -111 -398 -190 -165 -79 -435 -206 -600 -282 -165 -76 -304 -141 -309
-146 -6 -6 -6 -13 2 -21 8 -8 82 10 304 76 161 48 300 89 309 92 13 3 23 -11
42 -58 13 -34 33 -67 43 -72 74 -40 94 -58 105 -95 11 -36 9 -45 -15 -93 l-27
-54 30 -107 c17 -59 33 -112 36 -116 3 -5 39 -12 80 -16 41 -4 75 -10 75 -14
0 -4 -27 -22 -60 -41 -53 -30 -60 -37 -60 -65 0 -27 -6 -34 -45 -53 -45 -22
-61 -52 -27 -52 11 0 196 22 413 49 503 63 549 68 543 62 -9 -10 -606 -150
-1134 -266 -190 -42 -349 -80 -354 -85 -4 -4 -5 -14 -1 -20 5 -9 26 -11 69 -6
138 13 579 46 582 43 2 -2 7 -38 10 -81 7 -74 8 -78 46 -107 47 -38 72 -83 64
-115 -4 -13 -20 -39 -37 -58 l-30 -35 -2 -377 -2 -376 68 -25 c37 -14 66 -28
63 -30 -3 -3 -35 -12 -73 -19 -70 -15 -83 -24 -83 -60 0 -18 -8 -22 -50 -28
-33 -4 -50 -11 -50 -21 0 -7 3 -16 8 -19 4 -2 151 -30 327 -60 476 -84 623
-111 629 -117 9 -9 -810 54 -1257 96 -142 14 -263 23 -268 19 -5 -3 -9 -11 -9
-19 0 -8 38 -22 113 -39 308 -71 503 -119 510 -126 4 -4 3 -37 -3 -75 -10 -62
-9 -70 8 -89 65 -71 53 -151 -31 -200 l-42 -25 -29 -116 c-15 -64 -26 -118
-24 -119 1 -2 30 -23 62 -47 l60 -44 -73 -5 c-65 -4 -74 -8 -86 -30 -12 -22
-20 -25 -66 -25 -40 0 -54 -4 -57 -15 -2 -11 43 -34 165 -84 233 -96 727 -307
733 -314 7 -7 3 -6 -290 81 -341 101 -623 188 -925 285 -184 59 -253 77 -263
69 -11 -8 -11 -12 0 -22 7 -7 140 -72 296 -145 155 -73 282 -136 282 -140 0
-5 -14 -39 -31 -76 -29 -67 -30 -69 -15 -109 36 -92 12 -148 -73 -173 -37 -12
-43 -19 -101 -130 -34 -64 -68 -124 -74 -132 -7 -8 -37 -55 -66 -105 -29 -49
-79 -131 -111 -181 -33 -50 -59 -96 -59 -101 0 -6 20 -36 45 -66 25 -31 45
-58 45 -60 0 -3 -34 7 -75 21 l-76 27 -18 -24 c-18 -24 -21 -24 -59 -12 -44
15 -75 9 -66 -11 3 -7 33 -35 67 -63 90 -72 605 -507 652 -550 65 -60 -490
318 -1018 692 -197 141 -247 168 -247 135 0 -4 48 -53 107 -108 59 -54 165
-155 235 -223 l127 -123 -43 -53 c-41 -50 -43 -56 -38 -103 8 -89 -41 -142
-132 -142 -44 0 -49 -3 -123 -81 -43 -45 -79 -87 -81 -94 -2 -7 9 -41 23 -75
14 -34 24 -64 22 -66 -3 -3 -32 10 -65 28 -55 30 -62 32 -85 19 -24 -13 -30
-12 -66 12 -88 59 -82 19 18 -109 96 -123 446 -586 479 -634 53 -75 -334 329
-772 808 -137 150 -255 272 -262 272 -27 0 -22 -19 18 -76 91 -130 328 -475
328 -478 0 -2 -27 -22 -60 -45 -66 -46 -80 -65 -80 -108 0 -39 -34 -91 -65
-99 -14 -4 -49 -3 -76 0 -50 7 -53 5 -152 -57 -102 -63 -225 -133 -430 -242
l-109 -58 7 -46 c3 -25 8 -62 11 -81 l5 -35 -21 25 c-82 94 -89 100 -115 88
-23 -10 -29 -8 -65 27 -69 67 -68 38 6 -161 36 -98 106 -291 155 -429 49 -137
97 -267 105 -289 30 -78 6 -43 -44 61 -27 60 -110 232 -183 383 -73 151 -199
419 -280 595 -137 300 -176 364 -173 295 1 -19 119 -430 169 -591 4 -13 -9
-23 -57 -41 -47 -19 -67 -33 -79 -56 -33 -64 -50 -81 -88 -93 -36 -11 -45 -9
-95 15 l-56 27 -92 -26 c-144 -40 -135 -32 -143 -119 -4 -42 -10 -76 -14 -76
-4 0 -22 27 -41 60 -30 53 -37 60 -65 60 -27 0 -34 6 -53 45 -22 45 -52 61
-52 27 0 -11 22 -196 49 -413 65 -517 68 -550 60 -542 -3 5 -16 51 -28 103
-12 52 -55 237 -96 410 -40 173 -99 432 -130 575 -87 395 -88 400 -105 400
-19 0 -18 -34 9 -384 12 -146 19 -266 17 -268 -2 -3 -38 -7 -80 -10 -74 -6
-78 -7 -107 -45 -38 -47 -83 -72 -115 -64 -13 4 -39 20 -58 37 l-35 30 -377 2
-377 2 -26 -69 c-28 -77 -32 -75 -51 26 -10 53 -14 58 -43 66 -28 7 -33 14
-41 55 -8 43 -26 61 -40 38 -3 -4 -28 -136 -55 -292 -93 -537 -116 -655 -119
-618 -4 43 47 709 84 1114 33 357 33 368 13 373 -14 2 -23 -23 -49 -135 -88
-376 -113 -479 -120 -486 -4 -4 -37 -3 -75 3 -62 10 -70 9 -89 -8 -71 -65
-151 -53 -200 31 -25 42 -26 42 -138 70 l-113 28 -25 -28 c-14 -16 -37 -44
-52 -63 l-27 -35 -1 72 c0 69 -1 73 -27 87 -25 13 -28 20 -28 67 0 41 -4 54
-16 57 -11 2 -27 -26 -59 -105 -39 -95 -169 -405 -292 -695 -23 -54 -43 -96
-45 -94 -6 6 169 593 309 1036 45 140 93 294 108 342 23 72 25 89 14 99 -10 8
-18 4 -34 -23 -11 -18 -20 -36 -20 -39 0 -8 -239 -511 -245 -518 -3 -2 -39 11
-80 29 -75 33 -77 33 -111 17 -19 -10 -53 -17 -75 -17 -48 0 -79 29 -98 89
-11 38 -19 44 -134 106 -126 68 -295 169 -428 256 -41 27 -80 49 -86 49 -6 0
-36 -20 -66 -45 -31 -25 -58 -45 -60 -45 -3 0 7 34 21 75 l27 76 -24 18 c-24
18 -24 21 -12 59 15 44 9 75 -11 66 -7 -3 -78 -84 -158 -181 -181 -219 -445
-531 -473 -558 -38 -37 354 535 685 1003 165 231 193 282 160 282 -5 0 -29
-21 -52 -48 -24 -26 -124 -131 -222 -234 l-180 -188 -53 44 c-50 40 -57 43
-102 39 -26 -3 -60 0 -75 6 -40 15 -68 66 -68 124 0 48 -1 50 -81 125 -45 42
-87 78 -94 80 -7 2 -41 -9 -75 -23 -34 -14 -64 -24 -66 -22 -3 3 10 32 28 65
30 55 32 62 19 85 -13 24 -12 30 12 66 58 88 19 82 -108 -17 -116 -90 -633
-481 -655 -495 -48 -31 475 466 888 842 116 107 212 200 212 207 0 27 -19 22
-76 -18 -152 -106 -475 -328 -479 -328 -2 0 -23 27 -45 60 -44 64 -64 80 -105
80 -35 0 -82 25 -96 52 -7 13 -9 44 -5 83 6 62 6 62 -46 141 -54 82 -82 131
-226 397 l-85 159 -46 -7 c-25 -3 -62 -8 -81 -11 l-35 -5 25 21 c94 82 100 89
88 115 -10 23 -8 29 27 65 68 69 38 68 -161 -5 -98 -37 -291 -107 -429 -156
-137 -49 -267 -97 -289 -105 -21 -8 -40 -13 -42 -12 -6 7 860 420 1236 590 85
38 159 74 165 79 5 6 5 13 -3 21 -8 8 -75 -7 -274 -66 -145 -43 -283 -84 -307
-92 -25 -8 -46 -12 -48 -11 -2 2 -14 30 -27 63 -17 43 -32 63 -54 75 -64 33
-81 50 -93 88 -11 36 -9 45 15 94 l26 55 -29 106 c-17 59 -33 111 -36 115 -3
5 -39 12 -80 16 -41 4 -75 10 -75 14 0 4 27 22 60 41 53 30 60 37 60 65 0 27
6 34 45 53 46 22 61 52 25 52 -10 0 -178 -20 -372 -44 -506 -64 -589 -73 -581
-65 5 3 71 21 148 39 77 18 234 55 350 82 116 27 372 85 570 129 439 96 420
91 420 109 0 19 -39 18 -384 -9 -145 -12 -266 -20 -267 -18 -2 2 -7 38 -10 81
-7 74 -8 78 -46 107 -47 38 -72 83 -64 115 4 13 20 39 37 58 l30 35 2 377 2
377 -68 25 c-37 14 -65 27 -63 30 3 2 35 11 73 18 70 15 83 24 83 60 0 18 8
22 50 28 48 6 66 25 40 41 -5 3 -112 23 -237 44 -400 69 -708 124 -715 131 -4
3 43 2 105 -2 298 -21 919 -71 1151 -93 143 -13 263 -22 268 -19 4 3 8 11 8
18 0 9 -46 25 -138 46 -375 88 -478 113 -485 120 -4 4 -3 37 3 75 10 62 9 70
-8 89 -65 71 -53 151 31 200 l42 25 29 116 c15 64 26 118 24 119 -1 2 -30 23
-62 47 l-60 44 73 5 c65 4 74 8 86 30 12 22 20 25 66 25 41 0 54 4 57 16 2 11
-28 28 -115 63 -223 90 -782 330 -779 334 8 7 888 -260 1371 -417 65 -21 94
-26 103 -18 11 8 11 12 0 22 -7 7 -139 72 -293 144 -154 73 -281 134 -284 136
-2 3 11 38 28 78 32 72 32 75 17 112 -20 47 -20 104 -1 132 8 12 37 29 64 38
49 16 50 17 112 133 33 64 67 124 74 132 7 8 25 38 40 65 16 28 66 109 112
181 46 73 83 136 83 142 0 6 -20 35 -45 65 -25 31 -45 58 -45 60 0 3 34 -7 75
-21 l76 -27 18 24 c18 24 21 24 59 12 44 -15 75 -9 66 11 -3 7 -84 78 -181
158 -215 177 -531 445 -558 472 -44 44 568 -374 1088 -745 151 -108 197 -131
197 -99 0 4 -48 53 -107 108 -59 54 -165 155 -235 223 l-127 123 43 53 c40 50
43 57 39 102 -3 26 0 60 6 75 15 40 67 68 123 68 47 0 50 2 125 81 43 45 79
87 81 94 2 7 -9 41 -23 75 -14 34 -24 64 -22 66 3 3 32 -10 65 -28 55 -30 62
-32 85 -19 24 13 30 12 66 -12 88 -58 82 -19 -17 108 -93 119 -481 633 -495
655 -29 47 449 -457 842 -888 107 -116 200 -212 207 -212 27 0 22 19 -18 76
-106 152 -328 475 -328 479 0 2 27 23 60 45 65 44 80 64 80 107 0 39 34 91 65
99 14 4 49 3 76 0 49 -7 53 -5 147 55 53 34 124 76 157 94 33 17 134 71 223
120 l164 88 -7 46 c-3 25 -8 62 -11 81 l-5 35 21 -25 c82 -94 89 -100 115 -88
23 10 29 8 65 -27 69 -67 68 -38 -6 161 -119 322 -274 758 -270 761 1 2 28
-50 58 -114 31 -65 117 -244 191 -398 73 -154 196 -415 272 -580 76 -165 141
-304 146 -309 6 -6 13 -6 20 1 9 9 -10 87 -76 310 -49 164 -90 303 -92 309 -2
6 24 23 59 37 34 13 67 33 72 43 40 74 58 94 95 105 36 11 45 9 94 -15 l55
-26 106 29 c59 17 111 33 115 36 5 3 12 39 16 80 4 41 10 75 14 75 3 0 22 -27
40 -60 31 -53 39 -60 66 -60 27 0 34 -6 53 -45 22 -45 52 -61 52 -27 0 11 -22
196 -49 413 -64 516 -68 550 -61 542 10 -11 132 -534 246 -1047 53 -237 99
-435 104 -440 4 -4 14 -5 20 -1 9 5 11 26 6 69 -15 152 -46 579 -42 583 2 2
38 7 80 10 74 6 78 7 107 45 38 47 83 72 115 64 13 -4 39 -20 58 -37 l35 -30
377 -2 377 -2 26 69 c28 77 32 75 51 -26 10 -53 14 -58 43 -66 28 -7 33 -14
41 -55 7 -43 26 -61 40 -39 3 5 19 89 36 188 52 304 131 748 135 762 10 29 10
6 3 -100z"/>
</g>
</svg>
