<?xml version="1.0" standalone="no"?>
<!DOCTYPE svg PUBLIC "-//W3C//DTD SVG 20010904//EN"
 "http://www.w3.org/TR/2001/REC-SVG-20010904/DTD/svg10.dtd">
<svg version="1.0" xmlns="http://www.w3.org/2000/svg"
 width="1280.000000pt" height="640.000000pt" viewBox="0 0 1280.000000 640.000000"
 preserveAspectRatio="xMidYMid meet">
<metadata>
Created by potrace 1.15, written by Peter Selinger 2001-2017
</metadata>
<g transform="translate(0.000000,640.000000) scale(0.100000,-0.100000)"
fill="#000000" stroke="none">
<path d="M4930 4883 c-64 -24 -46 -115 41 -210 22 -24 39 -49 39 -57 0 -9 -7
-64 -16 -123 -39 -260 14 -400 215 -562 95 -77 160 -150 180 -202 8 -22 2 -36
-44 -102 -40 -59 -58 -98 -80 -174 -15 -54 -38 -117 -51 -140 -30 -52 -99
-113 -170 -149 -60 -31 -86 -69 -138 -206 -13 -35 -46 -106 -72 -158 -44 -85
-49 -101 -49 -161 l0 -66 -321 -8 -322 -7 -42 42 c-60 60 -138 94 -203 88 -66
-6 -115 -29 -178 -86 l-50 -45 -145 6 c-121 5 -146 3 -151 -9 -3 -8 -20 -173
-37 -367 -37 -405 -32 -414 -66 138 -10 176 -29 473 -40 660 -11 187 -36 584
-54 882 -18 299 -35 546 -39 549 -16 16 -37 -7 -37 -41 0 -19 -27 -429 -60
-910 -33 -481 -60 -890 -60 -907 0 -31 0 -32 -15 -12 -10 15 -29 23 -60 26
-25 3 -47 7 -49 9 -2 2 -25 69 -52 149 -34 100 -54 145 -64 145 -10 0 -35 -50
-76 -150 l-60 -150 -172 -9 -172 -8 -50 46 c-66 62 -120 86 -195 86 -75 0
-128 -24 -193 -84 l-49 -46 -126 0 c-78 0 -128 -4 -132 -11 -4 -5 -22 -166
-41 -357 -18 -191 -35 -354 -37 -362 -3 -17 -9 64 -77 1180 -83 1346 -90 1444
-100 1454 -6 6 -13 6 -19 0 -10 -10 -13 -65 -71 -1064 -56 -972 -50 -898 -65
-869 -11 19 -23 25 -66 29 l-52 5 -51 155 c-34 103 -56 155 -65 155 -10 0 -32
-52 -66 -155 l-52 -155 -374 -5 c-206 -3 -375 -7 -376 -8 -2 -1 -3 -9 -3 -17
0 -13 48 -15 391 -13 l391 3 42 127 c22 69 43 129 46 132 3 2 24 -55 46 -127
l42 -132 55 -3 55 -3 22 -70 c19 -61 41 -92 55 -77 2 2 18 240 35 529 17 288
39 665 49 837 11 172 21 315 23 318 3 2 8 -51 12 -118 6 -110 71 -1178 127
-2068 11 -184 25 -339 30 -345 6 -5 13 -5 19 1 6 6 31 230 58 500 l47 489 119
3 120 3 46 43 c127 119 246 119 362 1 l46 -46 195 7 196 7 52 129 c28 70 54
128 58 128 3 0 24 -55 47 -123 l41 -122 51 -8 c50 -8 52 -10 62 -50 26 -104
54 -145 64 -95 3 13 28 365 56 783 27 418 54 789 58 825 5 50 15 -62 40 -485
99 -1638 122 -1979 132 -1989 6 -6 13 -6 19 -1 5 6 28 224 51 485 22 261 43
485 45 496 5 21 8 21 145 16 l140 -5 55 52 c63 59 107 81 166 81 54 0 99 -22
164 -82 l54 -49 356 7 357 7 -8 26 c-4 14 -7 51 -8 82 -1 50 6 70 56 170 31
63 60 125 63 139 4 14 21 53 38 87 27 55 38 67 96 100 111 65 186 156 211 256
27 109 43 144 94 219 54 81 56 85 45 119 -22 65 -83 140 -168 207 -92 74 -140
124 -176 182 -66 109 -77 197 -50 383 9 56 13 113 10 126 -3 13 -23 44 -45 68
-66 75 -87 143 -47 151 36 7 128 -29 169 -66 83 -75 97 -163 51 -317 -37 -126
-37 -214 0 -278 35 -59 82 -94 212 -157 55 -27 136 -76 180 -110 147 -113 165
-117 450 -100 240 15 348 6 595 -51 134 -30 136 -30 260 -19 125 12 125 12
205 -16 94 -33 171 -36 364 -16 122 12 194 33 233 69 20 18 23 11 7 -19 -14
-25 6 -42 32 -27 26 14 28 12 22 -24 -4 -29 1 -41 46 -91 28 -32 53 -66 55
-75 5 -18 27 -128 29 -150 1 -8 -18 -28 -41 -45 -44 -31 -44 -31 -180 -32
-170 0 -192 -8 -192 -70 0 -23 4 -54 10 -68 5 -14 14 -60 19 -102 8 -67 15
-85 56 -146 55 -79 318 -337 373 -365 34 -17 69 -18 432 -18 l395 0 46 135
c27 78 49 129 53 120 3 -8 23 -69 44 -135 l38 -120 55 -3 55 -3 23 -69 c22
-70 36 -90 51 -74 4 5 29 388 56 851 27 463 50 840 52 838 4 -4 11 -110 62
-940 84 -1364 99 -1588 108 -1597 5 -5 13 -4 19 4 8 9 104 925 103 979 0 3 56
9 124 12 l125 6 41 41 c23 23 65 53 93 66 94 44 174 25 259 -60 l47 -46 198 2
198 3 53 129 c29 71 54 131 56 133 2 3 23 -52 46 -121 44 -134 42 -132 115
-138 28 -3 31 -7 50 -78 14 -51 26 -76 37 -78 21 -4 20 -9 59 558 56 844 76
1105 81 1090 3 -8 38 -571 78 -1250 74 -1244 80 -1311 109 -1239 7 18 93 937
91 983 0 5 61 6 143 2 l142 -7 40 41 c61 64 120 94 180 94 60 0 101 -20 165
-80 l47 -44 359 2 c311 3 359 5 359 18 0 13 -47 15 -351 18 l-351 2 -43 42
c-118 112 -251 109 -376 -8 l-49 -45 -147 7 -147 7 -5 -24 c-3 -13 -17 -168
-32 -344 -14 -176 -29 -327 -32 -335 -3 -8 -40 561 -83 1264 -46 746 -83 1284
-89 1290 -6 6 -13 6 -19 0 -5 -5 -37 -412 -70 -904 -59 -869 -70 -1003 -78
-969 -4 16 -43 29 -87 29 -19 0 -28 18 -71 146 -48 141 -67 173 -86 143 -5 -8
-34 -78 -66 -156 l-57 -143 -174 0 -174 0 -54 49 c-120 110 -254 105 -381 -12
l-46 -42 -131 -5 -131 -5 -32 -325 c-17 -179 -32 -340 -32 -359 -1 -19 -3 -32
-6 -30 -6 7 -17 165 -75 1114 -28 451 -59 961 -70 1133 -11 171 -20 326 -20
342 0 28 -22 51 -36 37 -5 -5 -25 -323 -90 -1459 -16 -269 -31 -488 -35 -488
-4 0 -9 9 -12 20 -4 17 -14 20 -59 20 l-53 0 -50 160 c-37 121 -53 160 -65
160 -12 0 -30 -41 -70 -160 l-53 -160 -369 0 c-288 0 -376 3 -401 14 -50 21
-308 267 -361 345 -39 56 -49 80 -56 132 -5 35 -15 90 -22 122 -17 81 -13 84
155 84 144 1 161 5 226 61 34 28 34 29 23 73 -6 24 -16 70 -23 102 -9 48 -19
68 -60 113 -54 60 -56 66 -34 117 14 33 12 67 -4 67 -4 0 -16 -7 -28 -15 -20
-14 -22 -14 -25 11 -2 15 -11 32 -20 38 -15 9 -23 5 -45 -18 -41 -44 -102 -66
-225 -79 -182 -19 -270 -15 -363 17 l-80 28 -120 -12 c-116 -12 -124 -11 -235
14 -277 62 -395 70 -706 52 -187 -11 -214 -3 -345 95 -52 38 -144 94 -205 124
-206 101 -234 166 -168 394 42 144 31 229 -41 317 -54 65 -189 119 -245 97z"/>
<path d="M6515 3050 c-27 -5 -77 -9 -110 -9 -33 -1 -96 -8 -140 -16 -44 -8
-119 -19 -167 -25 -120 -14 -159 -34 -266 -135 -99 -94 -127 -134 -117 -165 3
-11 40 -49 81 -85 l75 -65 332 2 332 3 7 66 c3 36 18 103 33 150 46 139 46
293 1 288 -6 -1 -33 -5 -61 -9z m55 -99 c0 -36 -11 -94 -29 -153 -16 -52 -32
-120 -36 -151 l-7 -57 -307 0 -306 0 -60 51 c-33 28 -64 58 -69 66 -11 20 162
195 220 224 23 11 81 24 129 30 48 5 108 14 134 20 45 11 190 25 284 28 l47 1
0 -59z"/>
<path d="M5477 3020 c-21 -12 -97 -36 -169 -56 -153 -40 -220 -74 -261 -129
-40 -54 -116 -213 -119 -250 l-3 -30 353 -3 c308 -2 352 0 352 13 0 8 -21 38
-48 67 -63 70 -92 112 -92 134 0 9 14 39 31 66 27 42 32 58 31 108 -1 56 -14
100 -30 100 -4 0 -24 -9 -45 -20z m36 -59 c7 -36 -3 -72 -37 -131 -38 -66 -34
-88 29 -169 l55 -71 -296 0 -295 0 6 23 c13 46 78 167 111 205 42 50 80 67
230 108 67 17 135 39 151 47 39 21 40 21 46 -12z"/>
<path d="M6913 2981 c-79 -27 -129 -65 -163 -124 -36 -63 -105 -271 -96 -292
5 -13 67 -15 528 -13 474 3 523 5 526 19 4 21 -88 95 -180 145 -38 21 -108 71
-156 112 -105 88 -140 108 -232 127 -39 8 -84 22 -100 30 -37 19 -63 19 -127
-4z m115 -35 c15 -8 56 -20 92 -26 88 -17 131 -41 224 -121 44 -38 116 -90
161 -115 45 -25 95 -57 111 -70 l29 -23 -472 -1 c-384 0 -473 2 -473 13 0 21
55 178 78 222 28 55 59 82 128 110 69 29 85 30 122 11z"/>
</g>
</svg>
